<svg xmlns="http://www.w3.org/2000/svg" viewBox="3913.4 8056.0 10351.2 10461.5">
  <!-- Logoyu orijinal koordinatlarıyla buraya gömdüm -->
  <g>
    <path d="M8943.6 8259.99c-1240.56,46.84 -2434.8,566.27 -3289.01,1402.19 -27.96,27.36 -50.05,48.85 -76.97,77.41l-364.11 417.03c-248.79,295.45 -549.55,837.17 -695.89,1184.2 -555.05,1316.26 -545.8,2826.8 66.42,4118.99 200.63,423.45 450.91,804.94 739.87,1139.98 492.82,571.39 1116.11,1017.89 1812.48,1320.03 620.25,269.12 1341.27,418.83 2104.79,398.75 1082.93,-28.49 2172.62,-447.88 2962.29,-1094.7 28.91,-23.68 58.78,-46.27 85.08,-69.4 28.5,-25.07 57.09,-52.55 87.36,-75.81l159.99 -148.87c37.76,-42.5 118.04,-123.5 159.11,-158.6 131.65,-112.51 459.08,-551.06 549,-695.58 553.72,-889.9 855.88,-1810.81 818.49,-2938.7 -35.22,-1062.17 -433.49,-2166.14 -1078.67,-2978.46 -23.16,-29.16 -45.14,-57.02 -68.85,-85.68l-73.42 -89.79c-495.17,-559.46 -1006.89,-985.34 -1803.03,-1329.42 -605.11,-261.53 -1346.67,-421.82 -2094.93,-393.57z" fill="#FC6401"/>
    <path d="M8925.83 8397.48c-1528.43,79.49 -2640.98,772.59 -3341.06,1530.31 -29.26,31.67 -43.59,39.66 -70.56,75.12l-207.37 247.47c-44.03,55 -85.19,114.1 -127.76,172.74 -209.76,288.91 -398.66,639.73 -546.43,981.45 -244.21,564.75 -413.09,1347.44 -386.04,2048.67 68.54,1777.15 951.42,3105.98 2165.05,3919.79 243.93,163.57 504.52,299.27 792.31,426.97 582.13,258.3 1324.53,405.94 2053.46,382.63 1076.24,-34.43 2085.77,-438.3 2871.8,-1075.42 59.08,-47.89 108.68,-95.84 166.84,-142.1 54.28,-43.17 109.47,-95.96 159.38,-141.28l153.27 -155.38c319.59,-361.17 523.63,-628.05 755.73,-1064.21 371.54,-698.18 616.18,-1631.32 562.7,-2484.6 -48.14,-768.25 -196.64,-1340.81 -479.68,-1949.56 -266.98,-574.22 -653.25,-1081.61 -1016.01,-1421.87 -95.21,-89.31 -120.25,-122.17 -236.86,-217.94 -29.37,-24.11 -53.57,-45.55 -84.28,-70.14 -109.91,-87.99 -225.43,-174.92 -350.66,-258.86 -786.26,-527.04 -1834.84,-855.74 -2833.83,-803.79z" fill="#01183A"/>
    <path d="M10471.52 12375.89c-39.28,-29.75 -618.81,-1044.51 -668.74,-1126.67l-191.16 -325.43c-2.86,-4.82 -10.67,-17.88 -13.3,-21.52 -1.49,-2.07 -3.57,-4.87 -5.08,-6.8l-17.5 -19.03 -1356.13 2161.26c28.82,61.93 700.96,907.54 776.21,1004.8 34.03,43.99 238.07,311.03 262.35,320.27l50.84 -1624.28c44.08,37.41 113.62,177.23 147.37,235.05 49.15,84.19 97.68,162.26 145.76,244.76 244.56,419.64 649.22,1051.83 857.54,1448.41 50.31,-41.29 1142.13,-2022.1 1180.16,-2053.99l-0.29 3228.63c24.79,0 1251.11,12.37 1317.71,-6.37l7.93 -5114.88 -1456.44 1.1c-88.6,132.7 -174.18,267.74 -260.14,406.14l-777.09 1248.55z" fill="#FC6401"/>
    <path d="M5257.57 14530.82c-33.21,96.07 -9.68,1107.76 -11.9,1297.51l1243.77 1.17 3.02 -1300.46c2.67,-165.56 7.73,-108.74 83.18,-253.37l48.62 -70.26c61.77,40.05 210.46,243.06 271.86,317.75 276.2,336.01 511.54,641.27 799.21,980.68l271.13 314.2c46.56,38.26 485.74,18 575.69,18.03 387.57,0.1 815.24,-16.88 1197.65,0.72 -18.3,-45.61 -103.71,-128.5 -137.72,-172.53 -23.17,-29.98 -44.88,-49.75 -68.88,-80.43l-1647.41 -1970.25c-54.93,-60.97 -400.39,-480.22 -425.82,-529.94l831.49 -1169.24c69.47,-101.36 135.16,-187.74 206.02,-287.88l421.28 -589.17c69.83,-96.32 138.22,-205.7 204.44,-295.26l-1190.76 -2.18c-73.12,2.07 -58.81,6.54 -134.46,106.55 -71.36,94.33 -137.63,176.55 -209.27,272.9l-799.92 1117.9c-133.23,191.9 -250.98,377.68 -385.55,567.77 -210.07,296.73 -556.2,833.98 -763.52,1154.59l-382.15 571.2z" fill="#FCFBFB"/>
    <path d="M5236.68 13863.85l1091.97 -1626.92c160.79,-259.66 152.46,-139.16 153.05,-393.6 0.84,-364.56 -8.01,-738.53 1.59,-1101.79l-1246.71 -4.43 0.1 3126.74z" fill="#FCFBFB"/>
    <path d="M6489.96 15845.91c-128.85,-24.26 -482.46,-6.27 -635.15,-6.28 -188.63,-0.02 -437.43,13.9 -621.35,-2.7l3.18 -1301.66c-37.23,25.28 -6.68,-8.34 -18.17,30.01l-1.25 1205.94c-2.2,25.82 -6.58,16.8 -2.46,46.01 7.32,51.9 8.03,27.92 15.47,39.81l1259.73 -11.13z" fill="#030C26"/>
    <path d="M6489.96 15845.91l-0.52 -16.41 -1243.77 -1.17c2.22,-189.75 -21.31,-1201.44 11.9,-1297.51l-20.93 4.45 -3.18 1301.66c183.92,16.6 432.72,2.68 621.35,2.7 152.69,0.01 506.3,-17.98 635.15,6.28z" fill="#C2C5CB"/>
  </g>
</svg>
