<?xml version="1.0" encoding="UTF-8"?>
<!DOCTYPE svg PUBLIC "-//W3C//DTD SVG 1.1//EN" "http://www.w3.org/Graphics/SVG/1.1/DTD/svg11.dtd">
<!-- Creator: CorelDRAW -->
<svg xmlns="http://www.w3.org/2000/svg" xml:space="preserve" width="210mm" height="297mm" version="1.1" style="shape-rendering:geometricPrecision; text-rendering:geometricPrecision; image-rendering:optimizeQuality; fill-rule:evenodd; clip-rule:evenodd"
viewBox="0 0 21000 29700"
 xmlns:xlink="http://www.w3.org/1999/xlink"
 xmlns:xodm="http://www.corel.com/coreldraw/odm/2003">
 <defs>
  <style type="text/css">
   <![CDATA[
    .fil1 {fill:#01183A}
    .fil3 {fill:#030C26}
    .fil4 {fill:#C2C5CB}
    .fil0 {fill:#FC6401}
    .fil2 {fill:#FCFBFB}
   ]]>
  </style>
 </defs>
 <g id="Katman_x0020_1">
  <metadata id="CorelCorpID_0Corel-Layer"/>
  <g id="_1809788093408">
   <path class="fil0" d="M-42414.82 -14520.77c-6381.65,238.29 -12525.08,2880.98 -16919.29,7133.84 -143.83,139.21 -257.5,248.56 -395.99,393.87l-1873.02 2121.7c-1279.86,1503.1 -2827.01,4259.19 -3579.81,6024.76 -2855.31,6696.67 -2807.73,14381.8 341.66,20955.98 1032.08,2154.38 2319.58,4095.28 3806.06,5799.83 2535.14,2907.07 5741.49,5178.7 9323.75,6715.88 3190.69,1369.17 6899.79,2130.84 10827.48,2028.67 5570.82,-144.9 11176.39,-2278.65 15238.64,-5569.42 148.72,-120.49 302.34,-235.41 437.64,-353.09 146.62,-127.55 293.68,-267.35 449.42,-385.67l823 -757.42c194.26,-216.23 607.24,-628.35 818.51,-806.91 677.23,-572.42 2361.57,-2803.59 2824.16,-3538.85 2848.44,-4527.52 4402.81,-9212.79 4210.46,-14951.12 -181.14,-5403.94 -2229.95,-11020.55 -5548.89,-15153.34 -119.15,-148.38 -232.22,-290.11 -354.18,-435.9l-377.69 -456.83c-2547.26,-2846.34 -5179.64,-5013.08 -9275.13,-6763.64 -3112.82,-1330.56 -6927.55,-2146.08 -10776.78,-2002.34z"/>
   <g>
    <path class="fil1" d="M-42506.22 -13821.27c-7862.56,404.4 -13585.74,3930.68 -17187.09,7785.67 -150.51,161.11 -224.22,201.8 -362.97,382.21l-1066.75 1259.04c-226.52,279.79 -438.23,580.5 -657.22,878.83 -1079.03,1469.89 -2050.79,3254.72 -2810.93,4993.26 -1256.3,2873.28 -2125.03,6855.31 -1985.91,10422.93 352.59,9041.55 4894.3,15802.13 11137.5,19942.52 1254.82,832.19 2595.33,1522.58 4075.8,2172.27 2994.59,1314.13 6813.61,2065.31 10563.42,1946.69 5536.38,-175.14 10729.58,-2229.88 14773.08,-5471.35 303.93,-243.65 559.08,-487.59 858.31,-722.94 279.22,-219.64 563.12,-488.22 819.84,-718.82l788.49 -790.49c1644,-1837.53 2693.63,-3195.32 3887.63,-5414.36 1911.25,-3552.07 3169.74,-8299.55 2894.64,-12640.74 -247.69,-3908.62 -1011.56,-6821.57 -2467.58,-9918.71 -1373.42,-2921.43 -3360.47,-5502.87 -5226.56,-7233.97 -489.81,-454.38 -618.6,-621.55 -1218.46,-1108.78 -151.08,-122.71 -275.58,-231.77 -433.57,-356.85 -565.39,-447.66 -1159.68,-889.97 -1803.86,-1317.03 -4044.67,-2681.39 -9438.82,-4353.7 -14577.81,-4089.38z"/>
    <g>
     <path class="fil0" d="M-34554.88 6419.5c-202.06,-151.34 -3183.25,-5314.13 -3440.11,-5732.12l-983.35 -1655.67c-14.74,-24.51 -54.93,-90.98 -68.45,-109.5 -7.65,-10.5 -18.35,-24.74 -26.12,-34.59l-90.03 -96.79 -6976.21 10995.74c148.26,315.06 3605.87,4617.24 3992.96,5112.04 175.09,223.8 1224.69,1582.42 1349.58,1629.42l261.55 -8263.76c226.76,190.35 584.48,901.67 758.11,1195.85 252.84,428.35 502.5,825.52 749.82,1245.26 1258.05,2134.97 3339.7,5351.33 4411.36,7369.03 258.81,-210.08 5875.34,-10287.75 6070.96,-10450.03l-1.46 16426.18c127.53,-0.02 6435.95,62.92 6778.55,-32.43l40.78 -26022.73 -7492.2 5.6c-455.81,675.13 -896.02,1362.17 -1338.19,2066.32l-3997.55 6352.18z"/>
     <path class="fil2" d="M-61376.5 17383.03c-170.83,488.77 -49.76,5635.87 -61.21,6601.26l6398.2 5.96 15.58 -6616.3c13.73,-842.28 39.74,-553.21 427.89,-1289.01l250.1 -357.5c317.73,203.76 1082.65,1236.64 1398.47,1616.63 1420.85,1709.47 2631.47,3262.56 4111.3,4989.35l1394.78 1598.55c239.5,194.63 2498.73,91.57 2961.45,91.69 1993.73,0.51 4193.77,-85.86 6160.94,3.71 -94.1,-232.07 -533.49,-653.8 -708.46,-877.79 -119.15,-152.54 -230.87,-253.1 -354.32,-409.19l-8474.62 -10023.94c-282.54,-310.21 -2059.69,-2443.23 -2190.5,-2696.16l4277.38 -5948.69c357.35,-515.7 695.26,-955.16 1059.77,-1464.64l2167.19 -2997.51c359.21,-490.03 710.99,-1046.52 1051.64,-1502.19l-6125.48 -11.08c-376.13,10.55 -302.53,33.29 -691.7,542.09 -367.1,479.91 -708.01,898.26 -1076.55,1388.42l-4114.92 5687.5c-685.35,976.32 -1291.09,1921.5 -1983.35,2888.6 -1080.65,1509.66 -2861.22,4243.03 -3927.68,5874.19l-1965.9 2906.05z"/>
     <path class="fil2" d="M-61483.93 13989.7l5617.3 -8277.18c827.16,-1321.06 784.28,-708.02 787.32,-2002.49 4.33,-1854.79 -41.2,-3757.42 8.18,-5605.53l-6413.36 -22.53 0.56 15907.73z"/>
     <path class="fil3" d="M-55036.8 24073.73c-662.87,-123.42 -2481.89,-31.87 -3267.36,-31.95 -970.34,-0.1 -2250.23,70.75 -3196.35,-13.73l16.38 -6622.36c-191.52,128.57 -34.4,-42.44 -93.52,152.67l-6.43 6135.41c-11.28,131.36 -33.82,85.45 -12.62,234.06 37.64,264.04 41.33,142.04 79.59,202.54l6480.31 -56.64z"/>
     <path class="fil4" d="M-55036.8 24073.73l-2.71 -83.48 -6398.2 -5.96c11.45,-965.39 -109.62,-6112.49 61.21,-6601.26l-107.63 22.66 -16.38 6622.36c946.12,84.48 2226.01,13.63 3196.35,13.73 785.47,0.08 2604.49,-91.47 3267.36,31.95z"/>
    </g>
   </g>
  </g>
 </g>
</svg>
